# xmcd
#
# Track frame offsets: 
#        150
#        18878
#        49729
#        84173
#        99817
#        110536
#        141818
#        159619
#        175242
#        194847
#        230822
#        241574
#        259060
#        281938
#
# Disc length: 4001 seconds
#
# Revision: 0
# Processed by: cddbd v1.5.2PL0 Copyright (c) Steve Scherf et al.
# Submitted via: ExactAudioCopy v0.95b4
#
DISCID=b90f9f0e
DTITLE=Eric Clapton - 461 Ocean Boulevard - The Unreleased Sessions
DYEAR=1974
DGENRE=Blues
TTITLE0=It's Too Late
TTITLE1=Meet Me
TTITLE2=Jam In E
TTITLE3=Dobro Jam
TTITLE4=Dobro Jam
TTITLE5=B Minor Jam
TTITLE6=B Minor Jam
TTITLE7=Give Me Strength
TTITLE8=Blues Intrumental
TTITLE9=Jam In E
TTITLE10=Give Me Strength
TTITLE11=Jam
TTITLE12=Fool Like Me
TTITLE13=Burial
EXTD=
EXTT0=
EXTT1=
EXTT2=
EXTT3=
EXTT4=
EXTT5=
EXTT6=
EXTT7=
EXTT8=
EXTT9=
EXTT10=
EXTT11=
EXTT12=
EXTT13=
PLAYORDER=
